<?xml version="1.0" encoding="UTF-8"?>
<svg version="1.1" xmlns="http://www.w3.org/2000/svg" width="500" height="500">
<path d="M0 0 C165 0 330 0 500 0 C500 165 500 330 500 500 C335 500 170 500 0 500 C0 335 0 170 0 0 Z " fill="#000000" transform="translate(0,0)"/>
<path d="M0 0 C1.11974716 -0.01606293 2.23949432 -0.03212585 3.39317322 -0.04867554 C8.58647743 -0.09345113 13.77969422 -0.13474171 18.97314453 -0.15722656 C21.69159852 -0.17040188 24.4092722 -0.19793066 27.12744141 -0.23925781 C63.56690707 -0.75258403 63.56690707 -0.75258403 75.16796875 6.83398438 C78.5450185 8.67661342 81.65875826 8.61525388 85.40844727 8.59912109 C86.5120459 8.61537537 86.5120459 8.61537537 87.63793945 8.63195801 C89.97819898 8.66608886 92.31797207 8.68178565 94.65844727 8.69287109 C97.74224558 8.70747722 100.82496558 8.74120626 103.90844727 8.78662109 C104.96177246 8.78208923 104.96177246 8.78208923 106.03637695 8.77746582 C111.38539007 8.85889488 114.31451939 10.37324288 118.43969727 13.57568359 C120.57825048 16.41337921 120.17947328 19.31093444 120.08422852 22.73974609 C119.65844727 25.19287109 119.65844727 25.19287109 117.34594727 28.31787109 C114.65844727 30.19287109 114.65844727 30.19287109 111.65844727 30.19287109 C116.77769278 42.30005524 122.01752265 54.33663935 127.55834961 66.2578125 C128.16670654 67.57724854 128.16670654 67.57724854 128.78735352 68.92333984 C129.14901611 69.70088623 129.51067871 70.47843262 129.88330078 71.27954102 C130.65844727 73.19287109 130.65844727 73.19287109 130.65844727 75.19287109 C131.38290039 75.13486328 132.10735352 75.07685547 132.85375977 75.01708984 C141.7355637 74.60260566 141.7355637 74.60260566 145.28344727 77.56787109 C148.55131436 81.17972419 149.00604728 83.24751312 148.94360352 88.15380859 C148.49030615 91.39519522 147.02256169 93.02576621 144.65844727 95.19287109 C142.51782227 95.82177734 142.51782227 95.82177734 140.65844727 96.19287109 C141.16375977 97.25248047 141.66907227 98.31208984 142.18969727 99.40380859 C142.84614858 100.79173423 143.5023876 102.17976029 144.15844727 103.56787109 C144.49231445 104.26654297 144.82618164 104.96521484 145.17016602 105.68505859 C147.65844727 110.96630859 147.65844727 110.96630859 147.65844727 113.19287109 C148.38290039 113.13486328 149.10735352 113.07685547 149.85375977 113.01708984 C158.7355637 112.60260566 158.7355637 112.60260566 162.28344727 115.56787109 C164.81607424 118.36709038 165.55269924 119.26228845 165.97094727 122.94287109 C165.57597878 127.05054338 164.25268406 129.02213723 161.65844727 132.19287109 C157.9237553 134.84893948 153.7506657 134.49884114 149.34985352 134.49365234 C148.54611801 134.49793747 147.74238251 134.5022226 146.91429138 134.50663757 C145.21728455 134.51237102 143.52025315 134.51288839 141.82324219 134.50854492 C139.23337683 134.50538625 136.64465576 134.52885078 134.05493164 134.55419922 C132.40324037 134.55647252 130.75154604 134.55717556 129.09985352 134.55615234 C128.32887833 134.56536209 127.55790314 134.57457184 126.76356506 134.58406067 C122.20946984 134.54506781 119.29085088 133.9913111 115.65844727 131.19287109 C113.31864404 128.18455266 113.23390971 124.91487912 113.34594727 121.16162109 C113.86483355 117.89263748 115.19905593 116.32865831 117.65844727 114.19287109 C119.64675522 113.79570288 121.64781395 113.45452885 123.65844727 113.19287109 C123.22532227 112.20544922 122.79219727 111.21802734 122.34594727 110.20068359 C121.78325681 108.90649555 121.22076721 107.61222016 120.65844727 106.31787109 C120.37227539 105.66689453 120.08610352 105.01591797 119.79125977 104.34521484 C117.65844727 99.41943359 117.65844727 99.41943359 117.65844727 97.19287109 C105.27603222 96.30705368 105.27603222 96.30705368 93.98657227 100.01708984 C92.33731269 102.32998006 91.02614819 104.70614215 89.65844727 107.19287109 C85.84437776 111.11933951 81.57382018 114.73518464 76.65844727 117.19287109 C75.99844727 117.19287109 75.33844727 117.19287109 74.65844727 117.19287109 C74.70485352 117.92892578 74.75125977 118.66498047 74.79907227 119.42333984 C75.0964398 127.46288354 75.0964398 127.46288354 72.78344727 131.31787109 C68.82491778 134.81069123 65.16371304 134.3859945 60.10766602 134.43115234 C59.25670853 134.43922409 58.40575104 134.44729584 57.52900696 134.45561218 C55.72590168 134.46945404 53.92277018 134.48017574 52.11962891 134.48803711 C49.36708659 134.50523898 46.61574888 134.54912159 43.86352539 134.59326172 C42.1115811 134.60338972 40.35962659 134.61190549 38.60766602 134.61865234 C37.78666916 134.63616043 36.9656723 134.65366852 36.11979675 134.67170715 C32.28753609 134.65722152 30.12168009 134.45360577 26.72412109 132.54125977 C24.36981907 129.86474031 23.517252 127.62809002 22.65844727 124.19287109 C21.81137207 124.22952881 20.96429688 124.26618652 20.09155273 124.30395508 C16.92712891 124.42376381 13.76386564 124.51124598 10.59790039 124.57739258 C9.23195205 124.61244589 7.8662636 124.66010742 6.5012207 124.72094727 C-4.76090716 125.21006888 -4.76090716 125.21006888 -8.5859375 122.74853516 C-11.30755596 119.7238853 -12.6962119 117.15492527 -13.02905273 113.06787109 C-12.21717477 108.49183166 -10.90621599 107.0619903 -7.34155273 104.19287109 C-6.84655273 103.69787109 -6.84655273 103.69787109 -6.34155273 103.19287109 C-2.71155273 103.19287109 0.91844727 103.19287109 4.65844727 103.19287109 C4.65844727 76.13287109 4.65844727 49.07287109 4.65844727 21.19287109 C1.02844727 21.19287109 -2.60155273 21.19287109 -6.34155273 21.19287109 C-9.95846548 19.0950617 -11.02446682 18.14412884 -12.34155273 14.19287109 C-13.00766707 8.30886115 -13.00766707 8.30886115 -11.29467773 5.43896484 C-7.61751194 0.95065954 -5.61821092 0.07325021 0 0 Z " fill="#204068" transform="translate(172.341552734375,159.80712890625)"/>
<path d="M0 0 C45.0730198 0 45.0730198 0 59.6875 13.0625 C70.12581629 24.26761204 72.55204838 37.52689337 72.3125 52.2890625 C71.33945538 63.8439674 65.67516055 75.39702931 57.171875 83.3359375 C39.67389089 96.74266633 22.45584567 94 0 94 C0 62.98 0 31.96 0 0 Z " fill="#25456D" transform="translate(192,175)"/>
<path d="M0 0 C4.60805521 -0.12394421 9.21513281 -0.21449675 13.82446289 -0.2746582 C15.39104114 -0.29974547 16.95750299 -0.33382415 18.52368164 -0.37719727 C20.78040309 -0.43811226 23.03557294 -0.46626499 25.29296875 -0.48828125 C25.98899704 -0.51408768 26.68502533 -0.5398941 27.40214539 -0.56648254 C31.29901225 -0.56871131 32.86839801 -0.10627164 35.94018555 2.37426758 C38.77153386 5.98350678 38.71453802 8.18210677 38.49609375 12.6171875 C37.73397323 16.27776637 36.00433911 17.90394946 33 20 C32.01 20 31.02 20 30 20 C35.11924551 32.10718415 40.35907539 44.14376826 45.89990234 56.06494141 C46.30547363 56.94456543 46.71104492 57.82418945 47.12890625 58.73046875 C47.49056885 59.50801514 47.85223145 60.28556152 48.22485352 61.08666992 C49 63 49 63 49 65 C49.72445312 64.94199219 50.44890625 64.88398438 51.1953125 64.82421875 C60.07711643 64.40973457 60.07711643 64.40973457 63.625 67.375 C66.89286709 70.9868531 67.34760001 73.05464203 67.28515625 77.9609375 C66.83185889 81.20232413 65.36411442 82.83289511 63 85 C60.859375 85.62890625 60.859375 85.62890625 59 86 C59.5053125 87.05960937 60.010625 88.11921875 60.53125 89.2109375 C61.18770131 90.59886314 61.84394033 91.98688919 62.5 93.375 C62.83386719 94.07367188 63.16773438 94.77234375 63.51171875 95.4921875 C66 100.7734375 66 100.7734375 66 103 C66.72445312 102.94199219 67.44890625 102.88398438 68.1953125 102.82421875 C77.07711643 102.40973457 77.07711643 102.40973457 80.625 105.375 C83.15762698 108.17421929 83.89425197 109.06941736 84.3125 112.75 C83.91753151 116.85767229 82.5942368 118.82926614 80 122 C76.26530804 124.65606839 72.09221844 124.30597004 67.69140625 124.30078125 C66.88767075 124.30506638 66.08393524 124.3093515 65.25584412 124.31376648 C63.55883728 124.31949992 61.86180588 124.3200173 60.16479492 124.31567383 C57.57492956 124.31251516 54.98620849 124.33597969 52.39648438 124.36132812 C50.7447931 124.36360143 49.09309877 124.36430447 47.44140625 124.36328125 C46.28494347 124.37709587 46.28494347 124.37709587 45.1051178 124.39118958 C40.55102257 124.35219671 37.63240362 123.79844001 34 121 C31.66019677 117.99168157 31.57546245 114.72200803 31.6875 110.96875 C32.20638629 107.69976638 33.54060866 106.13578722 36 104 C37.98830795 103.60283179 39.98936668 103.26165776 42 103 C41.566875 102.02417969 41.13375 101.04835938 40.6875 100.04296875 C40.1247129 98.7579382 39.56222866 97.47277498 39 96.1875 C38.71382813 95.54490234 38.42765625 94.90230469 38.1328125 94.24023438 C36.86288959 91.32243531 36 89.21734286 36 86 C29.4 86 22.8 86 16 86 C17.98 81.05 19.96 76.1 22 71 C27.94 70.505 27.94 70.505 34 70 C33.39671875 68.71609375 32.7934375 67.4321875 32.171875 66.109375 C28.01222256 56.99498302 24.48960482 48.34957063 22.8125 38.4375 C20.66521542 25.93827254 15.70231002 16.34910333 7 7 C6.34 6.67 5.68 6.34 5 6 C5 5.34 5 4.68 5 4 C4.360625 3.71125 3.72125 3.4225 3.0625 3.125 C1 2 1 2 0 0 Z " fill="#7A7672" transform="translate(254,170)"/>
<path d="M0 0 C1.68348038 -0.01429802 1.68348038 -0.01429802 3.40097046 -0.02888489 C4.62168243 -0.02797348 5.84239441 -0.02706207 7.10009766 -0.02612305 C8.9842186 -0.03255074 8.9842186 -0.03255074 10.90640259 -0.03910828 C13.57478684 -0.04486467 16.2427862 -0.04627409 18.91113281 -0.04101562 C22.29777967 -0.0352752 25.68386988 -0.05201177 29.07042503 -0.0753603 C32.33031027 -0.09384502 35.5901696 -0.08990704 38.85009766 -0.08862305 C40.65080215 -0.10243767 40.65080215 -0.10243767 42.48788452 -0.11653137 C57.81295309 -0.03380198 72.61330519 4.20568609 84.01416016 14.8371582 C96.61588083 28.49767254 100.55244588 43.54240017 100.05322266 61.8059082 C99.43312327 73.06909702 95.15824829 83.10771422 88.63916016 92.2746582 C88.18927734 92.90758789 87.73939453 93.54051758 87.27587891 94.19262695 C79.14929623 104.56260429 66.49234613 110.45965127 53.63916016 112.2746582 C51.6188477 112.3662957 49.59610623 112.41242859 47.57373047 112.41992188 C46.39941467 112.42630173 45.22509888 112.43268158 44.01519775 112.43925476 C42.13523102 112.440924 42.13523102 112.440924 40.21728516 112.44262695 C38.27278473 112.44761955 38.27278473 112.44761955 36.28900146 112.45271301 C33.55561488 112.4586782 30.82225982 112.46055532 28.08886719 112.45996094 C24.58265691 112.4598588 21.0766468 112.47357514 17.57048416 112.49073315 C14.22358108 112.50449322 10.87671621 112.50394039 7.52978516 112.50512695 C6.26837708 112.51231247 5.00696899 112.51949799 3.70733643 112.52690125 C2.54562927 112.52382462 1.38392212 112.52074799 0.18701172 112.51757812 C-0.83857849 112.51900314 -1.8641687 112.52042816 -2.9208374 112.52189636 C-5.36083984 112.2746582 -5.36083984 112.2746582 -7.36083984 110.2746582 C-7.61083984 107.7746582 -7.61083984 107.7746582 -7.36083984 105.2746582 C-6.37083984 104.2846582 -6.37083984 104.2846582 -5.36083984 103.2746582 C-0.41083984 103.2746582 4.53916016 103.2746582 9.63916016 103.2746582 C9.63916016 72.2546582 9.63916016 41.2346582 9.63916016 9.2746582 C4.68916016 9.2746582 -0.26083984 9.2746582 -5.36083984 9.2746582 C-7.36083984 7.2746582 -7.36083984 7.2746582 -7.61083984 4.7746582 C-7.11295141 -0.20422612 -4.29054486 0.01997338 0 0 Z M18.63916016 9.2746582 C18.63916016 40.2946582 18.63916016 71.3146582 18.63916016 103.2746582 C50.9257612 104.59607277 50.9257612 104.59607277 77.88916016 90.7746582 C87.24476672 80.7837944 91.10967389 67.57471284 90.88525391 54.1887207 C90.06070254 41.07442751 85.73404757 29.13797736 75.96337891 20.0559082 C58.9413345 7.01044224 39.75299249 9.2746582 18.63916016 9.2746582 Z " fill="#EFEBE8" transform="translate(173.36083984375,165.725341796875)"/>
<path d="M0 0 C37.23919308 0 37.23919308 0 50 12 C49.32360582 16.8276444 47.42099402 20.92489455 45.4375 25.328125 C44.91047485 26.51254181 44.91047485 26.51254181 44.37280273 27.72088623 C43.63213126 29.38270926 42.88899705 31.04343657 42.14355469 32.703125 C40.99879805 35.25267694 39.86207656 37.80569516 38.7265625 40.359375 C38.00567539 41.97416692 37.28433701 43.58875747 36.5625 45.203125 C36.22081787 45.9697345 35.87913574 46.73634399 35.52709961 47.52618408 C33.11630307 52.88369693 33.11630307 52.88369693 32 54 C30.25187827 54.13198906 28.50118145 54.23055969 26.75 54.3125 C22.00042743 54.69493312 19.31758757 55.35065367 16 59 C14.46785112 62.06429776 14.77061452 64.6165642 15 68 C16.36964285 71.0816964 17.29284118 72.57570471 20.1875 74.3125 C20.785625 74.539375 21.38375 74.76625 22 75 C21.34 77.31 20.68 79.62 20 82 C13.4 82 6.8 82 0 82 C0 54.94 0 27.88 0 0 Z " fill="#000101" transform="translate(198,181)"/>
<path d="M0 0 C3.95827235 -0.05785647 7.9164367 -0.09354717 11.875 -0.125 C13.00292969 -0.14175781 14.13085938 -0.15851563 15.29296875 -0.17578125 C16.36933594 -0.18222656 17.44570313 -0.18867188 18.5546875 -0.1953125 C19.54968262 -0.20578613 20.54467773 -0.21625977 21.56982422 -0.22705078 C24 0 24 0 26 2 C26.25 5 26.25 5 26 8 C24 10 24 10 21.8359375 10.1953125 C20.61777344 10.16050781 20.61777344 10.16050781 19.375 10.125 C18.55773437 10.10695312 17.74046875 10.08890625 16.8984375 10.0703125 C16.27195312 10.04710937 15.64546875 10.02390625 15 10 C15.30067383 10.67651611 15.60134766 11.35303223 15.91113281 12.05004883 C16.33749023 13.00935303 16.76384766 13.96865723 17.203125 14.95703125 C17.68362305 16.03799072 18.16412109 17.1189502 18.65917969 18.23266602 C19.7280214 20.63788793 20.79637339 23.04332752 21.86425781 25.44897461 C24.4378384 31.24551599 27.01504861 37.04029561 29.61236572 42.82624817 C30.45462931 44.7029124 31.29541117 46.58023339 32.13574219 48.45776367 C33.20113887 50.83685956 34.26943942 53.21465744 35.34082031 55.59106445 C36.06156738 57.20307739 36.06156738 57.20307739 36.796875 58.84765625 C37.22323242 59.79648682 37.64958984 60.74531738 38.08886719 61.72290039 C39 64 39 64 39 66 C40.48113281 65.96519531 40.48113281 65.96519531 41.9921875 65.9296875 C43.91417969 65.90261719 43.91417969 65.90261719 45.875 65.875 C47.15117187 65.85179687 48.42734375 65.82859375 49.7421875 65.8046875 C53 66 53 66 55 68 C55.25 70.5 55.25 70.5 55 73 C53 75 53 75 50.8359375 75.1953125 C50.02382813 75.17210937 49.21171875 75.14890625 48.375 75.125 C47.55773437 75.10695313 46.74046875 75.08890625 45.8984375 75.0703125 C45.27195312 75.04710937 44.64546875 75.02390625 44 75 C44.36351562 75.80743652 44.72703125 76.61487305 45.1015625 77.44677734 C46.44633341 80.43846161 47.78776828 83.43159474 49.12695312 86.42578125 C49.70764887 87.72227868 50.28967458 89.01818127 50.87304688 90.31347656 C51.71052399 92.17358729 52.54322138 94.03577294 53.375 95.8984375 C53.87773437 97.01911621 54.38046875 98.13979492 54.8984375 99.29443359 C56 102 56 102 56 104 C57.48113281 103.96519531 57.48113281 103.96519531 58.9921875 103.9296875 C60.91417969 103.90261719 60.91417969 103.90261719 62.875 103.875 C64.15117187 103.85179687 65.42734375 103.82859375 66.7421875 103.8046875 C70 104 70 104 72 106 C71.75 109.0625 71.75 109.0625 71 112 C67.90056455 113.54971773 64.62056402 113.16291442 61.21875 113.16796875 C60.44946167 113.17129715 59.68017334 113.17462555 58.88757324 113.17805481 C57.26017862 113.18312004 55.6327736 113.18546326 54.00537109 113.18530273 C51.50991825 113.1874913 49.01490595 113.20565654 46.51953125 113.22460938 C44.94010568 113.22754291 43.36067801 113.22952797 41.78125 113.23046875 C41.0322644 113.23765427 40.28327881 113.24483978 39.51159668 113.25224304 C34.2288276 113.2288276 34.2288276 113.2288276 32 111 C31.75 108.5 31.75 108.5 32 106 C34 104 34 104 36.8203125 103.8046875 C37.91085937 103.82789063 39.00140625 103.85109375 40.125 103.875 C41.22070312 103.89304687 42.31640625 103.91109375 43.4453125 103.9296875 C44.28835938 103.95289063 45.13140625 103.97609375 46 104 C45.74831055 103.47156494 45.49662109 102.94312988 45.23730469 102.39868164 C44.07368342 99.95385044 42.91183487 97.50818061 41.75 95.0625 C41.35425781 94.23169922 40.95851563 93.40089844 40.55078125 92.54492188 C37.94944948 87.06506725 35.44282303 81.55237986 33 76 C26.73 75.67 20.46 75.34 14 75 C14.66 72.03 15.32 69.06 16 66 C21.94 65.505 21.94 65.505 28 65 C27.39671875 63.71609375 26.7934375 62.4321875 26.171875 61.109375 C22.01222256 51.99498302 18.48960482 43.34957063 16.8125 33.4375 C14.78624176 21.64276032 10.41406402 13.11598393 2.63671875 3.9609375 C1 2 1 2 0 0 Z " fill="#EEEBE7" transform="translate(260,175)"/>
<path d="M0 0 C3.12981262 2.99373381 3.92948735 4.33894394 4.40625 8.80859375 C4.33116519 15.50052772 1.29567928 21.11051941 -1.5 27.0625 C-2.02464844 28.21427734 -2.54929688 29.36605469 -3.08984375 30.55273438 C-4.37835604 33.37574766 -5.68188458 36.19071871 -7 39 C-4.36 39.33 -1.72 39.66 1 40 C0.3395482 43.56643974 -0.61078315 46.23746802 -3 49 C-5.05859375 49.2578125 -5.05859375 49.2578125 -7.4375 49.3125 C-9.83725894 49.34864336 -9.83725894 49.34864336 -12 50 C-13.4202922 51.93317549 -14.16908491 53.82829264 -15.046875 56.0546875 C-16 58 -16 58 -18.9375 60 C-21.85972678 60.9541965 -23.95694555 61.2685048 -27 61 C-25.66666667 57 -24.33333333 53 -23 49 C-23.62648437 49.02320313 -24.25296875 49.04640625 -24.8984375 49.0703125 C-25.71570313 49.08835938 -26.53296875 49.10640625 -27.375 49.125 C-28.18710938 49.14820313 -28.99921875 49.17140625 -29.8359375 49.1953125 C-32 49 -32 49 -34 47 C-34.3125 44.5 -34.3125 44.5 -34 42 C-30.47844036 39.65229357 -28.49228157 39.62330386 -24.3125 39.375 C-22.54326172 39.26285156 -22.54326172 39.26285156 -20.73828125 39.1484375 C-19.83464844 39.09945312 -18.93101562 39.05046875 -18 39 C-17.66790527 38.24493164 -17.33581055 37.48986328 -16.99365234 36.71191406 C-15.73235256 33.84806794 -14.46834707 30.9854344 -13.20263672 28.12353516 C-12.39739475 26.30069538 -11.59513865 24.47653752 -10.79296875 22.65234375 C-7.40147827 14.99008748 -3.82124377 7.45733979 0 0 Z " fill="#EFEBE7" transform="translate(252,201)"/>
<path d="M0 0 C2.475 2.475 2.475 2.475 5 5 C4.18208984 6.69189453 4.18208984 6.69189453 3.34765625 8.41796875 C-1.40476392 18.31601021 -5.91786439 28.2821325 -10.16772461 38.40698242 C-10.52487549 39.25494385 -10.88202637 40.10290527 -11.25 40.9765625 C-11.56453125 41.73018066 -11.8790625 42.48379883 -12.203125 43.26025391 C-13 45 -13 45 -14 46 C-16.14204311 46.20983279 -18.28924113 46.36823385 -20.4375 46.5 C-24.87784331 46.64147326 -24.87784331 46.64147326 -29 48 C-29.042721 49.66611905 -29.04063832 51.33382885 -29 53 C-27.41727399 54.58272601 -25.61965997 54.34735747 -23.4375 54.5625 C-22.61121094 54.64628906 -21.78492188 54.73007813 -20.93359375 54.81640625 C-19.97646484 54.90728516 -19.97646484 54.90728516 -19 55 C-19.74261394 59.08437665 -20.85001662 63.01339097 -22 67 C-22 67.33 -22 67.66 -22 68 C-24.64 68 -27.28 68 -30 68 C-29.34 65.69 -28.68 63.38 -28 61 C-28.763125 60.773125 -29.52625 60.54625 -30.3125 60.3125 C-33.68439721 58.6657595 -34.54704383 57.44121198 -36 54 C-36.52607854 49.79137165 -36.50303249 47.78056766 -34.1875 44.1875 C-30.60080308 40.60080308 -28.26582238 39.72464629 -23.3125 39.375 C-22.31863281 39.30023438 -21.32476562 39.22546875 -20.30078125 39.1484375 C-19.54152344 39.09945312 -18.78226563 39.05046875 -18 39 C-17.23538452 37.28115601 -17.23538452 37.28115601 -16.45532227 35.52758789 C-14.56978188 31.29055044 -12.68122979 27.0548612 -10.79174805 22.81958008 C-9.97321202 20.98368586 -9.15550157 19.14742334 -8.33862305 17.31079102 C-7.16670302 14.67628068 -5.9918544 12.04309397 -4.81640625 9.41015625 C-4.44971329 8.58411392 -4.08302032 7.75807159 -3.70521545 6.90699768 C-1.11387171 1.11387171 -1.11387171 1.11387171 0 0 Z " fill="#787471" transform="translate(248,195)"/>
<path d="M0 0 C0.6271777 7.99651568 0.6271777 7.99651568 -1.875 12 C-5.77566374 15.67121294 -9.4418345 15.19265093 -14.55078125 15.23828125 C-15.40173874 15.246353 -16.25269623 15.25442474 -17.12944031 15.26274109 C-18.93254559 15.27658294 -20.73567709 15.28730465 -22.53881836 15.29516602 C-25.29136067 15.31236789 -28.04269838 15.35625049 -30.79492188 15.40039062 C-32.54686617 15.41051863 -34.29882067 15.4190344 -36.05078125 15.42578125 C-36.87177811 15.44328934 -37.69277496 15.46079742 -38.53865051 15.47883606 C-42.38897036 15.46428216 -44.56535009 15.23954433 -47.99682617 13.34838867 C-50.38754767 10.54566471 -50.75238216 8.63172838 -51 5 C-49.71536865 4.970271 -49.71536865 4.970271 -48.40478516 4.93994141 C-45.18027658 4.86112492 -41.95609679 4.77441367 -38.73193359 4.68261719 C-37.34529587 4.64469755 -35.9585721 4.60978547 -34.57177734 4.578125 C-24.72605836 4.35064268 -15.29938687 3.81686454 -6 0.3125 C-2.22199593 -1.11099796 -2.22199593 -1.11099796 0 0 Z " fill="#787471" transform="translate(247,279)"/>
<path d="M0 0 C-0.75 4.75 -0.75 4.75 -3 7 C-5.65291757 7.17510386 -8.19986174 7.23155483 -10.8515625 7.1953125 C-11.62559418 7.1924826 -12.39962585 7.18965271 -13.19711304 7.18673706 C-15.67323157 7.17552754 -18.1489905 7.15042203 -20.625 7.125 C-22.30207812 7.11497118 -23.97916189 7.10584516 -25.65625 7.09765625 C-29.77097223 7.07558574 -33.88542511 7.04105102 -38 7 C-38.66 5.68 -39.32 4.36 -40 3 C-38.98800537 2.970271 -38.98800537 2.970271 -37.95556641 2.93994141 C-34.84504139 2.8436189 -31.73509211 2.7343819 -28.625 2.625 C-27.03365234 2.57859375 -27.03365234 2.57859375 -25.41015625 2.53125 C-19.47808985 2.31289173 -13.88600903 1.76610977 -8.09765625 0.42773438 C-5.37614376 -0.12721091 -2.76652304 -0.14560648 0 0 Z " fill="#EEEAE7" transform="translate(242,281)"/>
<path d="M0 0 C0.33 0 0.66 0 1 0 C2.09074599 9.55588332 2.88416621 17.27977191 -2 26 C-1.34 26 -0.68 26 0 26 C-0.66 28.31 -1.32 30.62 -2 33 C-5.3 32.67 -8.6 32.34 -12 32 C-11.06027344 29.81310547 -11.06027344 29.81310547 -10.1015625 27.58203125 C-9.27600949 25.65886798 -8.45049043 23.73569013 -7.625 21.8125 C-7.2125 20.85279297 -6.8 19.89308594 -6.375 18.90429688 C-5.97539062 17.97294922 -5.57578125 17.04160156 -5.1640625 16.08203125 C-4.79748535 15.22843018 -4.4309082 14.3748291 -4.05322266 13.49536133 C-2.13130546 8.94183428 -0.68714421 4.92453351 0 0 Z " fill="#7D7A76" transform="translate(256,209)"/>
<path d="M0 0 C1.61788664 2.42682996 2.77455192 4.55572673 3.9453125 7.1953125 C4.29980469 7.99324219 4.65429688 8.79117188 5.01953125 9.61328125 C5.38433594 10.44214844 5.74914062 11.27101562 6.125 12.125 C6.68380859 13.37990234 6.68380859 13.37990234 7.25390625 14.66015625 C10 20.8665293 10 20.8665293 10 22 C6.04 22 2.08 22 -2 22 C-1.125 16.125 -1.125 16.125 0 15 C0.07313567 12.46950598 0.09247527 9.96695163 0.0625 7.4375 C0.05798828 6.72658203 0.05347656 6.01566406 0.04882812 5.28320312 C0.03700864 3.52209987 0.01907263 1.76103964 0 0 Z " fill="#7C7875" transform="translate(279,219)"/>
<path d="M0 0 C2.64 0 5.28 0 8 0 C4.84778899 4.41309542 1.44536093 7.00793014 -3 10 C-3.66 9.67 -4.32 9.34 -5 9 C-3.35 6.03 -1.7 3.06 0 0 Z " fill="#807E7E" transform="translate(240,250)"/>
<path d="M0 0 C0.33 0 0.66 0 1 0 C0.67 2.97 0.34 5.94 0 9 C-0.99 9 -1.98 9 -3 9 C-2.44271087 5.65626525 -1.64826111 2.96687001 0 0 Z " fill="#0C1118" transform="translate(257,226)"/>
</svg>
